# xmcd CD database file generated by Grip 3.0.7
# 
# Track frame offsets:
#       150
#       14052
#       27772
#       40490
#       56517
#       73652
#       91667
#       106827
#       121890
#       136152
#       146702
#       157825
# 
# Disc length: 2249 seconds
# 
# Revision: 1
# Processed by: cddbd v1.4PL0 Copyright (c) Steve Scherf et al.
# Submitted via: Grip 3.0.7
# 
DISCID=9a08c70c
DTITLE=Dwight Yoakam - Reprise Please Baby (Promo Sampler)
DYEAR=2002
DGENRE=Country
TTITLE0=Guitars,Cadillacs
TTITLE1=Little Sister
TTITLE2=Streets Of Bakersfield
TTITLE3=Please, Please Baby
TTITLE4=I Sang Dixie
TTITLE5=Baby Don`t Go
TTITLE6=Only Want You More
TTITLE7=Little Ways
TTITLE8=The Heart That You Own
TTITLE9=Crazy Little Thing Called Love
TTITLE10=Mercury Blues
TTITLE11=Sittin' Pretty
EXTD=
EXTT0=
EXTT1=
EXTT2=
EXTT3=
EXTT4=
EXTT5=
EXTT6=
EXTT7=
EXTT8=
EXTT9=
EXTT10=
EXTT11=
PLAYORDER=
